# xmcd
#
# Track frame offsets:
#	150
#	15403
#	27600
#	42685
#	55108
#	68808
#	85423
#	98996
#	114601
#	127021
#	142228
#	157801
#	173627
#	186297
#	197159
#
# Disc length: 2830 seconds
#
# Revision: 1
# Processed by: cddbd v1.5.2PL0 Copyright (c) Steve Scherf et al.
# Submitted via: audiograbber 1.83.01
#
DISCID=d80b0c0f
DTITLE=Roy Clark - Gospel Songs of Strength
DYEAR=2005
DGENRE=Gospel
TTITLE0=Put Your Hand in the Hand
TTITLE1=Jesus Is the Bridge over Troubled Water
TTITLE2=Onward Christian Soldiers
TTITLE3=Jesus Is a Soul Man
TTITLE4=The Last Word in Jesus Is Us
TTITLE5=Just a Closer Walk with Thee
TTITLE6=Safely in the Arms of Jesus
TTITLE7=Come Back Home
TTITLE8=I Would Crawl All the Way (To the River)
TTITLE9=Help Me
TTITLE10=Heaven Bound
TTITLE11=Shinin' Face
TTITLE12=Dear God
TTITLE13=Drink to Me Only with Thine Eyes
TTITLE14=Peace in the Valley
EXTD=
EXTT0=
EXTT1=
EXTT2=
EXTT3=
EXTT4=
EXTT5=
EXTT6=
EXTT7=
EXTT8=
EXTT9=
EXTT10=
EXTT11=
EXTT12=
EXTT13=
EXTT14=
PLAYORDER=
